<svg id="Layer_1" data-name="Layer 1" xmlns="http://www.w3.org/2000/svg" viewBox="0 0 129.62 115.261"><title>ORDB</title><path d="M301.606,413.728c-.007-.1-.029-.193-.029-.293a4.389,4.389,0,1,1,8.777,0c0,.1-.022.194-.029.293H312.8c0-.1.015-.194.015-.293a6.847,6.847,0,1,0-13.693,0c0,.1.01.195.014.293Z" transform="translate(-241.15 -339.441)" fill="#3560a0"/><rect x="31.017" y="18.834" width="68.167" height="3.333" fill="#a39474"/><polygon points="31.684 15.668 65.163 0 98.517 15.668 31.684 15.668" fill="#a39474"/><path d="M314.7,413.312c0,.14-.015.277-.021.416H370.77l-1.125-3.235H314.207A8.414,8.414,0,0,1,314.7,413.312Z" transform="translate(-241.15 -339.441)" fill="#3560a0"/><path d="M360.084,388.786a70.85,70.85,0,0,0-50.306,16.856,8.484,8.484,0,0,1,.795.421C344.162,392.169,362.5,394.92,362.5,394.92Z" transform="translate(-241.15 -339.441)" fill="#3560a0"/><path d="M363.667,396.776c-36,2.833-50.855,10.233-50.855,10.233l-.666.258a8.453,8.453,0,0,1,.625.673l.209.215,3.707-1.146c20.02-4.152,49.146-5.117,49.146-5.117Z" transform="translate(-241.15 -339.441)" fill="#3560a0"/><path d="M313.911,409.766c8.159-1.1,55.022-1.165,55.022-1.165l-2.036-4.963L313.4,408.831A8.424,8.424,0,0,1,313.911,409.766Z" transform="translate(-241.15 -339.441)" fill="#3560a0"/><path d="M297.221,413.312c0,.14.014.277.021.416H241.15l1.125-3.235h55.438A8.414,8.414,0,0,0,297.221,413.312Z" transform="translate(-241.15 -339.441)" fill="#3560a0"/><path d="M251.836,388.786a70.85,70.85,0,0,1,50.306,16.856,8.5,8.5,0,0,0-.8.421c-33.588-13.894-51.926-11.143-51.926-11.143Z" transform="translate(-241.15 -339.441)" fill="#3560a0"/><path d="M248.253,396.776c36,2.833,50.855,10.233,50.855,10.233l.665.258a8.63,8.63,0,0,0-.624.673l-.209.215-3.708-1.146c-20.019-4.152-49.145-5.117-49.145-5.117Z" transform="translate(-241.15 -339.441)" fill="#3560a0"/><path d="M298.009,409.766c-8.159-1.1-55.022-1.165-55.022-1.165l2.036-4.963,53.494,5.193A8.424,8.424,0,0,0,298.009,409.766Z" transform="translate(-241.15 -339.441)" fill="#3560a0"/><path d="M254.2,381.4l-.511,1.171c25.845,1.274,46.243,15.051,49.3,22.508a8.349,8.349,0,0,1,1.172-.3C301.164,397.119,280.447,382.849,254.2,381.4Z" transform="translate(-241.15 -339.441)" fill="#3560a0"/><path d="M357.717,381.4l.511,1.171c-25.845,1.274-46.243,15.051-49.3,22.508a8.3,8.3,0,0,0-1.171-.3C310.756,397.119,331.473,382.849,357.717,381.4Z" transform="translate(-241.15 -339.441)" fill="#3560a0"/><path d="M301.577,366.319v-1.262h0l1.832-1.316h-12.37l1.832,1.316h0v1.262h-1.828l3.632,3.064v21.761a14.7,14.7,0,0,1,5.106,4.2V369.372l3.632-3.053Z" transform="translate(-241.15 -339.441)" fill="#a39474"/><path d="M282.708,366.319v-1.262h0l1.832-1.316h-12.37L274,365.057h0v1.262h-1.828l3.631,3.064v13.309a9.35,9.35,0,0,1,5.107,2.03v-15.35l3.632-3.053Z" transform="translate(-241.15 -339.441)" fill="#a39474"/><path d="M311.606,366.319v-1.262h0l-1.831-1.316h12.37l-1.832,1.316h0v1.262h1.829l-3.632,3.064v21.761a14.7,14.7,0,0,0-5.107,4.2V369.372l-3.631-3.053Z" transform="translate(-241.15 -339.441)" fill="#a39474"/><path d="M330.474,366.319v-1.262h0l-1.832-1.316h12.37l-1.831,1.316h0v1.262h1.828l-3.632,3.064v13.309a9.346,9.346,0,0,0-5.106,2.03v-15.35l-3.632-3.053Z" transform="translate(-241.15 -339.441)" fill="#a39474"/><path d="M273.9,430.636q3.26,3.756,3.26,10.145,0,6.372-3.25,10.147a12.486,12.486,0,0,1-17.889,0q-3.242-3.775-3.241-10.147,0-6.406,3.278-10.155a12.482,12.482,0,0,1,17.842.01Zm-15.347,2.227a12.238,12.238,0,0,0-2.367,7.918,12.468,12.468,0,0,0,2.321,7.9,8.5,8.5,0,0,0,12.9,0,14.474,14.474,0,0,0-.01-15.818,8.508,8.508,0,0,0-12.843,0Z" transform="translate(-241.15 -339.441)" fill="#a39474"/><path d="M288.485,443.562v10.514H285.17V427.505h10.146a8.656,8.656,0,0,1,6.161,2.164,7.511,7.511,0,0,1,2.31,5.754,8.167,8.167,0,0,1-1.418,4.806,7.328,7.328,0,0,1-3.922,2.817l6.15,11.03h-3.885l-5.69-10.514Zm0-13.111v10.164h6.537a5.524,5.524,0,0,0,3.95-1.316,4.941,4.941,0,0,0,1.39-3.766,4.835,4.835,0,0,0-1.455-3.737,5.716,5.716,0,0,0-4.032-1.345Z" transform="translate(-241.15 -339.441)" fill="#a39474"/><path d="M312.071,427.505h9.115q5.91,0,9.225,3.5t3.315,9.777q0,6.281-3.306,9.788t-9.234,3.507h-9.115Zm3.315,2.983v20.605h5.579a8.865,8.865,0,0,0,6.914-2.706q2.458-2.708,2.458-7.568,0-4.88-2.477-7.606a8.845,8.845,0,0,0-6.9-2.725Z" transform="translate(-241.15 -339.441)" fill="#a39474"/><path d="M341.9,427.4h7.866c5.39,0,9.117,1.831,9.117,6.49a5.8,5.8,0,0,1-3.872,5.756v.161c3.167.625,5.39,2.717,5.39,6.342,0,5.207-4.123,7.754-10.031,7.754H341.9Zm7.3,11.277c4.507,0,6.373-1.663,6.373-4.349,0-3.1-2.122-4.253-6.221-4.253h-4.078v8.6Zm.688,12.549c4.533,0,7.2-1.632,7.2-5.2,0-3.266-2.568-4.759-7.2-4.759h-4.614v9.962Z" transform="translate(-241.15 -339.441)" fill="#a39474"/></svg>